<svg width="393" height="159" viewBox="0 0 393 159" fill="none" xmlns="http://www.w3.org/2000/svg">
<g opacity="0.376596" filter="url(#filter0_f_4_339)">
<path d="M23.99 60C23.99 53.3726 29.3626 48 35.99 48H357.266C363.894 48 369.266 53.3726 369.266 60V98.1732C369.266 104.801 363.894 110.173 357.266 110.173H35.99C29.3626 110.173 23.99 104.801 23.99 98.1732V60Z" fill="url(#paint0_linear_4_339)"/>
</g>
<path d="M23.99 60C23.99 53.3726 29.3626 48 35.99 48H357.266C363.894 48 369.266 53.3726 369.266 60V98.1732C369.266 104.801 363.894 110.173 357.266 110.173H35.99C29.3626 110.173 23.99 104.801 23.99 98.1732V60Z" fill="url(#paint1_linear_4_339)"/>
<path d="M25.9805 61.9905C25.9805 55.3631 31.3531 49.9905 37.9805 49.9905H355.276C361.903 49.9905 367.276 55.3631 367.276 61.9905V96.1827C367.276 102.81 361.903 108.183 355.276 108.183H37.9805C31.3531 108.183 25.9805 102.81 25.9805 96.1827V61.9905Z" fill="black"/>
<path d="M102.89 85.0916C102.538 85.0916 102.212 85.0063 101.914 84.8356C101.626 84.6649 101.396 84.4356 101.226 84.1476C101.055 83.8489 100.97 83.5236 100.97 83.1716V82.7236H102.266V83.1716C102.266 83.3423 102.324 83.4916 102.442 83.6196C102.57 83.7369 102.719 83.7956 102.89 83.7956H110.57C110.74 83.7956 110.884 83.7369 111.002 83.6196C111.13 83.4916 111.194 83.3423 111.194 83.1716V80.5956C111.194 80.4249 111.13 80.2809 111.002 80.1636C110.884 80.0463 110.74 79.9876 110.57 79.9876H102.89C102.538 79.9876 102.212 79.9023 101.914 79.7316C101.626 79.5503 101.396 79.3156 101.226 79.0276C101.055 78.7396 100.97 78.4196 100.97 78.0676V75.4916C100.97 75.1396 101.055 74.8196 101.226 74.5316C101.396 74.2329 101.626 73.9983 101.914 73.8276C102.212 73.6569 102.538 73.5716 102.89 73.5716H110.57C110.922 73.5716 111.242 73.6569 111.53 73.8276C111.828 73.9983 112.063 74.2329 112.234 74.5316C112.404 74.8196 112.49 75.1396 112.49 75.4916V75.9396H111.194V75.4916C111.194 75.3209 111.13 75.1769 111.002 75.0596C110.884 74.9316 110.74 74.8676 110.57 74.8676H102.89C102.719 74.8676 102.57 74.9316 102.442 75.0596C102.324 75.1769 102.266 75.3209 102.266 75.4916V78.0676C102.266 78.2383 102.324 78.3823 102.442 78.4996C102.57 78.6169 102.719 78.6756 102.89 78.6756H110.57C110.922 78.6756 111.242 78.7663 111.53 78.9476C111.828 79.1183 112.063 79.3476 112.234 79.6356C112.404 79.9236 112.49 80.2436 112.49 80.5956V83.1716C112.49 83.5236 112.404 83.8489 112.234 84.1476C112.063 84.4356 111.828 84.6649 111.53 84.8356C111.242 85.0063 110.922 85.0916 110.57 85.0916H102.89ZM119.55 85.0916V74.8676H114.43V73.5716H125.95V74.8676H120.846V85.0916H119.55ZM127.978 85.0916V75.4916C127.978 75.1396 128.064 74.8196 128.234 74.5316C128.405 74.2329 128.634 73.9983 128.922 73.8276C129.221 73.6569 129.546 73.5716 129.898 73.5716H137.578C137.93 73.5716 138.25 73.6569 138.538 73.8276C138.837 73.9983 139.072 74.2329 139.242 74.5316C139.413 74.8196 139.498 75.1396 139.498 75.4916V85.0916H138.202V80.8836H129.274V85.0916H127.978ZM129.274 79.5876H138.202V75.4916C138.202 75.3209 138.138 75.1769 138.01 75.0596C137.893 74.9316 137.749 74.8676 137.578 74.8676H129.898C129.728 74.8676 129.578 74.9316 129.45 75.0596C129.333 75.1769 129.274 75.3209 129.274 75.4916V79.5876ZM151.849 85.0916L148.089 80.6116H149.785L153.561 85.0756V85.0916H151.849ZM142.121 85.0916V73.5876H151.721C152.073 73.5876 152.393 73.6783 152.681 73.8596C152.98 74.0303 153.215 74.2596 153.385 74.5476C153.556 74.8356 153.641 75.1556 153.641 75.5076V78.8836C153.641 79.2356 153.556 79.5556 153.385 79.8436C153.215 80.1316 152.98 80.3663 152.681 80.5476C152.393 80.7183 152.073 80.8036 151.721 80.8036H143.417V85.0916H142.121ZM144.041 79.4916H151.721C151.892 79.4916 152.036 79.4329 152.153 79.3156C152.281 79.1983 152.345 79.0543 152.345 78.8836V75.5076C152.345 75.3369 152.281 75.1929 152.153 75.0756C152.036 74.9476 151.892 74.8836 151.721 74.8836H144.041C143.871 74.8836 143.721 74.9476 143.593 75.0756C143.476 75.1929 143.417 75.3369 143.417 75.5076V78.8836C143.417 79.0543 143.476 79.1983 143.593 79.3156C143.721 79.4329 143.871 79.4916 144.041 79.4916ZM160.669 85.0916V74.8676H155.549V73.5716H167.069V74.8676H161.965V85.0916H160.669ZM174.257 85.0916V75.4916C174.257 75.1396 174.342 74.8196 174.513 74.5316C174.683 74.2329 174.913 73.9983 175.201 73.8276C175.499 73.6569 175.825 73.5716 176.177 73.5716H183.857C184.209 73.5716 184.529 73.6569 184.817 73.8276C185.115 73.9983 185.35 74.2329 185.521 74.5316C185.691 74.8196 185.777 75.1396 185.777 75.4916V85.0916H184.481V80.8836H175.553V85.0916H174.257ZM175.553 79.5876H184.481V75.4916C184.481 75.3209 184.417 75.1769 184.289 75.0596C184.171 74.9316 184.027 74.8676 183.857 74.8676H176.177C176.006 74.8676 175.857 74.9316 175.729 75.0596C175.611 75.1769 175.553 75.3209 175.553 75.4916V79.5876ZM191.756 85.0916L187.564 73.5716H188.94L192.316 82.8196L195.676 73.5716H197.244L200.62 82.8196L203.964 73.5716H205.372L201.18 85.0916H200.044L196.46 75.2516L192.876 85.0916H191.756ZM207.153 85.0916V75.4916C207.153 75.1396 207.239 74.8196 207.409 74.5316C207.58 74.2329 207.809 73.9983 208.097 73.8276C208.396 73.6569 208.721 73.5716 209.073 73.5716H216.753C217.105 73.5716 217.425 73.6569 217.713 73.8276C218.012 73.9983 218.247 74.2329 218.417 74.5316C218.588 74.8196 218.673 75.1396 218.673 75.4916V85.0916H217.377V80.8836H208.449V85.0916H207.153ZM208.449 79.5876H217.377V75.4916C217.377 75.3209 217.313 75.1769 217.185 75.0596C217.068 74.9316 216.924 74.8676 216.753 74.8676H209.073C208.903 74.8676 208.753 74.9316 208.625 75.0596C208.508 75.1769 208.449 75.3209 208.449 75.4916V79.5876ZM221.312 85.0916V73.5716H222.624V78.6756H226.336L230.624 73.5716H232.288V73.5876L227.472 79.3316L232.304 85.0756V85.0916H230.624L226.336 79.9876H222.624V85.0916H221.312ZM234.878 85.0916V73.5716H245.39V74.8676H236.174V78.6756H243.582V79.9876H236.174V83.7956H245.39V85.0916H234.878ZM247.896 85.0916V73.5716H249.672L258.12 83.6196V73.5716H259.416V85.0916H257.64L249.192 75.0436V85.0916H247.896ZM262.169 85.0916V73.5716H263.481V85.0916H262.169ZM266.231 85.0916V73.5716H268.007L276.455 83.6196V73.5716H277.751V85.0916H275.975L267.527 75.0436V85.0916H266.231ZM282.263 85.0916C281.911 85.0916 281.586 85.0063 281.287 84.8356C280.999 84.6649 280.77 84.4356 280.599 84.1476C280.429 83.8489 280.343 83.5236 280.343 83.1716V75.4916C280.343 75.1396 280.429 74.8196 280.599 74.5316C280.77 74.2329 280.999 73.9983 281.287 73.8276C281.586 73.6569 281.911 73.5716 282.263 73.5716H289.943C290.295 73.5716 290.615 73.6569 290.903 73.8276C291.202 73.9983 291.437 74.2329 291.607 74.5316C291.778 74.8196 291.863 75.1396 291.863 75.4916V75.9556H290.567V75.4916C290.567 75.3209 290.503 75.1769 290.375 75.0596C290.258 74.9316 290.114 74.8676 289.943 74.8676H282.263C282.093 74.8676 281.943 74.9316 281.815 75.0596C281.698 75.1769 281.639 75.3209 281.639 75.4916V83.1716C281.639 83.3423 281.698 83.4916 281.815 83.6196C281.943 83.7369 282.093 83.7956 282.263 83.7956H289.943C290.114 83.7956 290.258 83.7369 290.375 83.6196C290.503 83.4916 290.567 83.3423 290.567 83.1716V80.3236H287.719V79.0116H291.863V83.1716C291.863 83.5236 291.778 83.8489 291.607 84.1476C291.437 84.4356 291.202 84.6649 290.903 84.8356C290.615 85.0063 290.295 85.0916 289.943 85.0916H282.263Z" fill="#EEEEEE"/>
<defs>
<filter id="filter0_f_4_339" x="-24.01" y="0" width="441.276" height="158.173" filterUnits="userSpaceOnUse" color-interpolation-filters="sRGB">
<feFlood flood-opacity="0" result="BackgroundImageFix"/>
<feBlend mode="normal" in="SourceGraphic" in2="BackgroundImageFix" result="shape"/>
<feGaussianBlur stdDeviation="24" result="effect1_foregroundBlur_4_339"/>
</filter>
<linearGradient id="paint0_linear_4_339" x1="23.99" y1="79.0866" x2="369.266" y2="79.0866" gradientUnits="userSpaceOnUse">
<stop stop-color="#9810FA"/>
<stop offset="1" stop-color="#0092B8"/>
</linearGradient>
<linearGradient id="paint1_linear_4_339" x1="23.99" y1="79.0866" x2="369.266" y2="79.0866" gradientUnits="userSpaceOnUse">
<stop stop-color="#9810FA"/>
<stop offset="1" stop-color="#0092B8"/>
</linearGradient>
</defs>
</svg>
