<svg width="226" height="35" viewBox="0 0 226 35" fill="none" xmlns="http://www.w3.org/2000/svg">
<mask id="path-1-inside-1_4_319" fill="white">
<path d="M0 17.1011C0 7.65642 7.65642 0 17.1011 0H208C217.445 0 225.101 7.65642 225.101 17.1011C225.101 26.5458 217.445 34.2022 208 34.2022H17.1011C7.65642 34.2022 0 26.5458 0 17.1011Z"/>
</mask>
<path d="M0 17.1011C0 7.65642 7.65642 0 17.1011 0H208C217.445 0 225.101 7.65642 225.101 17.1011C225.101 26.5458 217.445 34.2022 208 34.2022H17.1011C7.65642 34.2022 0 26.5458 0 17.1011Z" fill="#9810FA" fill-opacity="0.2"/>
<path d="M17.1011 0V1.10776H208V0V-1.10776H17.1011V0ZM208 34.2022V33.0944H17.1011V34.2022V35.31H208V34.2022ZM17.1011 34.2022V33.0944C8.26822 33.0944 1.10776 25.934 1.10776 17.1011H0H-1.10776C-1.10776 27.1576 7.04462 35.31 17.1011 35.31V34.2022ZM225.101 17.1011H223.993C223.993 25.934 216.833 33.0944 208 33.0944V34.2022V35.31C218.056 35.31 226.209 27.1576 226.209 17.1011H225.101ZM208 0V1.10776C216.833 1.10776 223.993 8.26822 223.993 17.1011H225.101H226.209C226.209 7.04463 218.056 -1.10776 208 -1.10776V0ZM17.1011 0V-1.10776C7.04463 -1.10776 -1.10776 7.04462 -1.10776 17.1011H0H1.10776C1.10776 8.26822 8.26822 1.10776 17.1011 1.10776V0Z" fill="#AD46FF" fill-opacity="0.3" mask="url(#path-1-inside-1_4_319)"/>
<g clip-path="url(#clip0_4_319)">
<path d="M23.723 19.4335C23.6635 19.2029 23.5433 18.9924 23.3749 18.824C23.2065 18.6556 22.996 18.5354 22.7654 18.4759L18.6771 17.4217C18.6074 17.4019 18.546 17.3599 18.5023 17.302C18.4585 17.2442 18.4349 17.1736 18.4349 17.1011C18.4349 17.0286 18.4585 16.9581 18.5023 16.9002C18.546 16.8424 18.6074 16.8004 18.6771 16.7806L22.7654 15.7257C22.9959 15.6663 23.2063 15.5462 23.3748 15.3779C23.5432 15.2096 23.6634 14.9993 23.723 14.7688L24.7772 10.6805C24.7968 10.6104 24.8388 10.5488 24.8967 10.5048C24.9547 10.4609 25.0254 10.4371 25.0981 10.4371C25.1708 10.4371 25.2415 10.4609 25.2995 10.5048C25.3574 10.5488 25.3994 10.6104 25.419 10.6805L26.4725 14.7688C26.532 14.9994 26.6522 15.2098 26.8206 15.3783C26.989 15.5467 27.1995 15.6669 27.4301 15.7264L31.5184 16.7799C31.5887 16.7993 31.6507 16.8412 31.6949 16.8993C31.7391 16.9573 31.763 17.0282 31.763 17.1011C31.763 17.1741 31.7391 17.245 31.6949 17.303C31.6507 17.361 31.5887 17.4029 31.5184 17.4223L27.4301 18.4759C27.1995 18.5354 26.989 18.6556 26.8206 18.824C26.6522 18.9924 26.532 19.2029 26.4725 19.4335L25.4183 23.5218C25.3987 23.5918 25.3567 23.6535 25.2988 23.6975C25.2409 23.7414 25.1701 23.7652 25.0974 23.7652C25.0247 23.7652 24.954 23.7414 24.8961 23.6975C24.8381 23.6535 24.7962 23.5918 24.7766 23.5218L23.723 19.4335Z" stroke="#C27AFF" stroke-width="1.33278" stroke-linecap="round" stroke-linejoin="round"/>
<path d="M30.4289 11.1036V13.7691" stroke="#C27AFF" stroke-width="1.33278" stroke-linecap="round" stroke-linejoin="round"/>
<path d="M31.7617 12.4364H29.0961" stroke="#C27AFF" stroke-width="1.33278" stroke-linecap="round" stroke-linejoin="round"/>
<path d="M19.7667 20.433V21.7658" stroke="#C27AFF" stroke-width="1.33278" stroke-linecap="round" stroke-linejoin="round"/>
<path d="M20.433 21.0994H19.1003" stroke="#C27AFF" stroke-width="1.33278" stroke-linecap="round" stroke-linejoin="round"/>
</g>
<path d="M43.4775 22.1044C43.2135 22.1044 42.9695 22.0404 42.7455 21.9124C42.5295 21.7844 42.3575 21.6124 42.2295 21.3964C42.1015 21.1724 42.0375 20.9284 42.0375 20.6644V20.3284H43.0095V20.6644C43.0095 20.7924 43.0535 20.9044 43.1415 21.0004C43.2375 21.0884 43.3495 21.1324 43.4775 21.1324H49.2375C49.3655 21.1324 49.4735 21.0884 49.5615 21.0004C49.6575 20.9044 49.7055 20.7924 49.7055 20.6644V18.7324C49.7055 18.6044 49.6575 18.4964 49.5615 18.4084C49.4735 18.3204 49.3655 18.2764 49.2375 18.2764H43.4775C43.2135 18.2764 42.9695 18.2124 42.7455 18.0844C42.5295 17.9484 42.3575 17.7724 42.2295 17.5564C42.1015 17.3404 42.0375 17.1004 42.0375 16.8364V14.9044C42.0375 14.6404 42.1015 14.4004 42.2295 14.1844C42.3575 13.9604 42.5295 13.7844 42.7455 13.6564C42.9695 13.5284 43.2135 13.4644 43.4775 13.4644H49.2375C49.5015 13.4644 49.7415 13.5284 49.9575 13.6564C50.1815 13.7844 50.3575 13.9604 50.4855 14.1844C50.6135 14.4004 50.6775 14.6404 50.6775 14.9044V15.2404H49.7055V14.9044C49.7055 14.7764 49.6575 14.6684 49.5615 14.5804C49.4735 14.4844 49.3655 14.4364 49.2375 14.4364H43.4775C43.3495 14.4364 43.2375 14.4844 43.1415 14.5804C43.0535 14.6684 43.0095 14.7764 43.0095 14.9044V16.8364C43.0095 16.9644 43.0535 17.0724 43.1415 17.1604C43.2375 17.2484 43.3495 17.2924 43.4775 17.2924H49.2375C49.5015 17.2924 49.7415 17.3604 49.9575 17.4964C50.1815 17.6244 50.3575 17.7964 50.4855 18.0124C50.6135 18.2284 50.6775 18.4684 50.6775 18.7324V20.6644C50.6775 20.9284 50.6135 21.1724 50.4855 21.3964C50.3575 21.6124 50.1815 21.7844 49.9575 21.9124C49.7415 22.0404 49.5015 22.1044 49.2375 22.1044H43.4775ZM56.1315 22.1044V18.8524L52.1595 13.4644H53.2755L56.6235 17.6884L59.9355 13.4644H61.0755L57.1035 18.8524V22.1044H56.1315ZM63.6736 22.1044C63.4096 22.1044 63.1656 22.0404 62.9416 21.9124C62.7256 21.7844 62.5536 21.6124 62.4256 21.3964C62.2976 21.1724 62.2336 20.9284 62.2336 20.6644V20.3284H63.2056V20.6644C63.2056 20.7924 63.2496 20.9044 63.3376 21.0004C63.4336 21.0884 63.5456 21.1324 63.6736 21.1324H69.4336C69.5616 21.1324 69.6696 21.0884 69.7576 21.0004C69.8536 20.9044 69.9016 20.7924 69.9016 20.6644V18.7324C69.9016 18.6044 69.8536 18.4964 69.7576 18.4084C69.6696 18.3204 69.5616 18.2764 69.4336 18.2764H63.6736C63.4096 18.2764 63.1656 18.2124 62.9416 18.0844C62.7256 17.9484 62.5536 17.7724 62.4256 17.5564C62.2976 17.3404 62.2336 17.1004 62.2336 16.8364V14.9044C62.2336 14.6404 62.2976 14.4004 62.4256 14.1844C62.5536 13.9604 62.7256 13.7844 62.9416 13.6564C63.1656 13.5284 63.4096 13.4644 63.6736 13.4644H69.4336C69.6976 13.4644 69.9376 13.5284 70.1536 13.6564C70.3776 13.7844 70.5536 13.9604 70.6816 14.1844C70.8096 14.4004 70.8736 14.6404 70.8736 14.9044V15.2404H69.9016V14.9044C69.9016 14.7764 69.8536 14.6684 69.7576 14.5804C69.6696 14.4844 69.5616 14.4364 69.4336 14.4364H63.6736C63.5456 14.4364 63.4336 14.4844 63.3376 14.5804C63.2496 14.6684 63.2056 14.7764 63.2056 14.9044V16.8364C63.2056 16.9644 63.2496 17.0724 63.3376 17.1604C63.4336 17.2484 63.5456 17.2924 63.6736 17.2924H69.4336C69.6976 17.2924 69.9376 17.3604 70.1536 17.4964C70.3776 17.6244 70.5536 17.7964 70.6816 18.0124C70.8096 18.2284 70.8736 18.4684 70.8736 18.7324V20.6644C70.8736 20.9284 70.8096 21.1724 70.6816 21.3964C70.5536 21.6124 70.3776 21.7844 70.1536 21.9124C69.9376 22.0404 69.6976 22.1044 69.4336 22.1044H63.6736ZM76.1688 22.1044V14.4364H72.3288V13.4644H80.9688V14.4364H77.1408V22.1044H76.1688ZM82.4902 22.1044V13.4644H90.3742V14.4364H83.4622V17.2924H89.0182V18.2764H83.4622V21.1324H90.3742V22.1044H82.4902ZM91.9022 22.1044V13.4644H93.2342L96.8222 17.7364L100.41 13.4644H101.742V22.1044H100.77V14.5684L96.8222 19.2604L92.8742 14.5684V22.1044H91.9022ZM107.505 22.1044V13.4644H108.837L115.173 21.0004V13.4644H116.145V22.1044H114.813L108.477 14.5684V22.1044H107.505ZM119.505 22.1044C119.241 22.1044 118.997 22.0404 118.773 21.9124C118.557 21.7844 118.385 21.6124 118.257 21.3964C118.129 21.1724 118.065 20.9284 118.065 20.6644V14.9044C118.065 14.6404 118.129 14.4004 118.257 14.1844C118.385 13.9604 118.557 13.7844 118.773 13.6564C118.997 13.5284 119.241 13.4644 119.505 13.4644H125.265C125.529 13.4644 125.769 13.5284 125.985 13.6564C126.209 13.7844 126.385 13.9604 126.513 14.1844C126.641 14.4004 126.705 14.6404 126.705 14.9044V20.6644C126.705 20.9284 126.641 21.1724 126.513 21.3964C126.385 21.6124 126.209 21.7844 125.985 21.9124C125.769 22.0404 125.529 22.1044 125.265 22.1044H119.505ZM119.505 21.1324H125.265C125.393 21.1324 125.501 21.0884 125.589 21.0004C125.685 20.9044 125.733 20.7924 125.733 20.6644V14.9044C125.733 14.7764 125.685 14.6684 125.589 14.5804C125.501 14.4844 125.393 14.4364 125.265 14.4364H119.505C119.377 14.4364 119.265 14.4844 119.169 14.5804C119.081 14.6684 119.037 14.7764 119.037 14.9044V20.6644C119.037 20.7924 119.081 20.9044 119.169 21.0004C119.265 21.0884 119.377 21.1324 119.505 21.1324ZM132.034 22.1044V14.4364H128.194V13.4644H136.834V14.4364H133.006V22.1044H132.034ZM138.452 22.1044V13.4644H139.436V22.1044H138.452ZM141.522 22.1044V13.4644H149.406V14.4364H142.494V17.2924H148.05V18.2764H142.494V22.1044H141.522ZM150.89 22.1044V13.4644H151.874V22.1044H150.89ZM155.377 22.1044C155.113 22.1044 154.869 22.0404 154.645 21.9124C154.429 21.7844 154.257 21.6124 154.129 21.3964C154.001 21.1724 153.937 20.9284 153.937 20.6644V14.9044C153.937 14.6404 154.001 14.4004 154.129 14.1844C154.257 13.9604 154.429 13.7844 154.645 13.6564C154.869 13.5284 155.113 13.4644 155.377 13.4644H162.553V14.4364H155.377C155.249 14.4364 155.137 14.4844 155.041 14.5804C154.953 14.6684 154.909 14.7764 154.909 14.9044V20.6644C154.909 20.7924 154.953 20.9044 155.041 21.0004C155.137 21.0884 155.249 21.1324 155.377 21.1324H162.553V22.1044H155.377ZM164.428 22.1044V14.9044C164.428 14.6404 164.492 14.4004 164.62 14.1844C164.748 13.9604 164.92 13.7844 165.136 13.6564C165.36 13.5284 165.604 13.4644 165.868 13.4644H171.628C171.892 13.4644 172.132 13.5284 172.348 13.6564C172.572 13.7844 172.748 13.9604 172.876 14.1844C173.004 14.4004 173.068 14.6404 173.068 14.9044V22.1044H172.096V18.9484H165.4V22.1044H164.428ZM165.4 17.9764H172.096V14.9044C172.096 14.7764 172.048 14.6684 171.952 14.5804C171.864 14.4844 171.756 14.4364 171.628 14.4364H165.868C165.74 14.4364 165.628 14.4844 165.532 14.5804C165.444 14.6684 165.4 14.7764 165.4 14.9044V17.9764ZM178.443 22.1044V14.4364H174.603V13.4644H183.243V14.4364H179.415V22.1044H178.443ZM184.86 22.1044V13.4644H185.844V22.1044H184.86ZM189.323 22.1044C189.059 22.1044 188.815 22.0404 188.591 21.9124C188.375 21.7844 188.203 21.6124 188.075 21.3964C187.947 21.1724 187.883 20.9284 187.883 20.6644V14.9044C187.883 14.6404 187.947 14.4004 188.075 14.1844C188.203 13.9604 188.375 13.7844 188.591 13.6564C188.815 13.5284 189.059 13.4644 189.323 13.4644H195.083C195.347 13.4644 195.587 13.5284 195.803 13.6564C196.027 13.7844 196.203 13.9604 196.331 14.1844C196.459 14.4004 196.523 14.6404 196.523 14.9044V20.6644C196.523 20.9284 196.459 21.1724 196.331 21.3964C196.203 21.6124 196.027 21.7844 195.803 21.9124C195.587 22.0404 195.347 22.1044 195.083 22.1044H189.323ZM189.323 21.1324H195.083C195.211 21.1324 195.319 21.0884 195.407 21.0004C195.503 20.9044 195.551 20.7924 195.551 20.6644V14.9044C195.551 14.7764 195.503 14.6684 195.407 14.5804C195.319 14.4844 195.211 14.4364 195.083 14.4364H189.323C189.195 14.4364 189.083 14.4844 188.987 14.5804C188.899 14.6684 188.855 14.7764 188.855 14.9044V20.6644C188.855 20.7924 188.899 20.9044 188.987 21.0004C189.083 21.0884 189.195 21.1324 189.323 21.1324ZM198.444 22.1044V13.4644H199.776L206.112 21.0004V13.4644H207.084V22.1044H205.752L199.416 14.5684V22.1044H198.444Z" fill="#DAB2FF"/>
<defs>
<clipPath id="clip0_4_319">
<rect width="15.9933" height="15.9933" fill="white" transform="translate(17.1011 9.10443)"/>
</clipPath>
</defs>
</svg>
